<?xml version="1.0" encoding="utf-8"?>
<!DOCTYPE svg PUBLIC "-//W3C//DTD SVG 1.0//EN" "http://www.w3.org/TR/2001/REC-SVG-20010904/DTD/svg10.dtd">
<svg version="1.0" xmlns="http://www.w3.org/2000/svg" width="256px" height="256px" viewBox="0 0 256 256" preserveAspectRatio="xMidYMid meet">
 <g fill="#bab1ff">
  <path d="M115.5 206.5 c-8.1 -1.8 -15.7 -4.7 -16.3 -6.3 -0.6 -1.9 4.6 -1.5 11.3 0.8 3.3 1.1 8.3 2.3 11.2 2.7 4.3 0.5 5.3 0.9 5.3 2.4 0 2.3 -2.6 2.3 -11.5 0.4z"/>
  <path d="M136 206.3 c0 -1.7 0.9 -2.1 5.3 -2.6 2.9 -0.3 8.8 -1.7 13 -3.1 8 -2.7 12.7 -3.3 12.7 -1.6 0 2.3 -14.9 7.4 -24.9 8.6 -5.7 0.6 -6.1 0.5 -6.1 -1.3z"/>
  <path d="M168 196.5 c0 -1.8 0.7 -2.6 2.4 -3.1 1.4 -0.3 2.7 -1.2 2.9 -1.8 0.3 -0.7 -3.6 -5.5 -8.7 -10.5 l-9.3 -9.3 -6.8 2.1 c-8 2.5 -14.5 2.8 -14.5 0.6 0 -0.9 1.4 -1.6 3.8 -2 2 -0.4 6.9 -1.8 10.9 -3.1 5.2 -1.9 7.6 -2.3 9 -1.6 3 1.7 21.3 20.8 21.3 22.4 0 2.1 -2 4.3 -6 6.7 -4.5 2.7 -5 2.6 -5 -0.4z"/>
  <path d="M89.3 195.9 c-3.6 -2.3 -4.9 -5 -3.4 -7.6 0.5 -1 5.5 -6.2 11 -11.7 11.1 -10.8 10 -10.5 20.1 -6.7 3 1.1 7.2 2.3 9.3 2.6 5 0.8 5.1 3.5 0.1 3.5 -4.5 0 -12.4 -2 -12.4 -3.1 0 -0.5 -1.2 -0.9 -2.7 -0.9 -2.1 0 -4.9 2.1 -11.9 9.1 -8.6 8.6 -10.5 11.9 -6.8 11.9 0.8 0 1.4 1 1.4 2.5 0 3 -0.6 3.1 -4.7 0.4z"/>
  <path d="M65 171.3 c-3.3 -4.2 -7.9 -14.5 -10.2 -23 -2.9 -10.9 -2.9 -29.6 0 -40.6 6.5 -23.8 25.4 -45.2 47.7 -53.8 21.1 -8.2 44.9 -7.2 64.6 2.6 8.8 4.4 10.9 6.1 10.9 8.9 0 2.6 -19.7 22.6 -22.2 22.6 -1 0 -5.1 -1.1 -9.2 -2.5 -17.3 -5.8 -34.8 -1.4 -47.3 11.7 -11.7 12.5 -15.3 29 -9.8 45.4 1.4 4.1 2.5 8.2 2.5 9.2 0 2.6 -20 22.2 -22.7 22.2 -1.2 0 -3.1 -1.2 -4.3 -2.7z"/>
  <path d="M121.5 150.6 c-6 -2.8 -9.7 -6.6 -12.4 -12.6 -2.7 -5.9 -2.7 -9 -0.1 -9 1.6 0 2.1 0.9 2.6 4.9 0.5 3.7 1.1 5.1 2.5 5.4 1.1 0.3 1.9 1.4 1.9 2.6 0 1.5 0.6 2.1 2.1 2.1 1.2 0 2.3 0.8 2.6 1.9 0.3 1.4 1.7 2 5.4 2.5 4 0.5 4.9 1 4.9 2.6 0 2.7 -3.2 2.6 -9.5 -0.4z"/>
  <path d="M133 151 c0 -1.6 0.9 -2.1 4.9 -2.6 3.7 -0.5 5.1 -1.1 5.4 -2.5 0.3 -1.1 1.4 -1.9 2.6 -1.9 1.5 0 2.1 -0.6 2.1 -2.1 0 -1.2 0.8 -2.3 1.9 -2.6 1.4 -0.3 2 -1.7 2.5 -5.4 0.5 -4 1 -4.9 2.6 -4.9 2.7 0 2.6 3.2 -0.4 9.5 -2.8 6 -6.6 9.7 -12.6 12.4 -5.9 2.7 -9 2.7 -9 0.1z"/>
  <path d="M107 124.8 c0.1 -3.3 3.7 -10.8 6.8 -14.2 3.1 -3.2 11.6 -7.6 15 -7.6 1.5 0 2.2 0.6 2.2 2 0 1.6 -0.9 2.1 -4.9 2.6 -3.7 0.5 -5.1 1.1 -5.4 2.5 -0.3 1.1 -1.4 1.9 -2.6 1.9 -1.5 0 -2.1 0.6 -2.1 2.1 0 1.2 -0.8 2.3 -1.9 2.6 -1.4 0.3 -2 1.7 -2.5 5.4 -0.5 4 -1 4.9 -2.6 4.9 -1.4 0 -2 -0.7 -2 -2.2z"/>
  <path d="M152.4 122.1 c-0.5 -3.7 -1.1 -5.1 -2.5 -5.4 -1.1 -0.3 -1.9 -1.4 -1.9 -2.6 0 -1.5 -0.6 -2.1 -2.1 -2.1 -1.2 0 -2.3 -0.8 -2.6 -1.9 -0.3 -1.4 -1.7 -2 -5.4 -2.5 -4 -0.5 -4.9 -1 -4.9 -2.6 0 -2.6 3.1 -2.6 9 0.1 6 2.7 9.8 6.4 12.6 12.4 3 6.3 3.1 9.5 0.4 9.5 -1.6 0 -2.1 -0.9 -2.6 -4.9z"/>
 </g>
 <g fill="#6c47ff">
  <path d="M117.5 206.6 c-16.4 -3.3 -31.5 -10.9 -31.5 -15.9 0 -2.9 19.7 -22.7 22.5 -22.7 1.1 0 5.2 1.1 9 2.5 9.6 3.4 19.1 3.4 29.1 0 4.1 -1.4 8.2 -2.5 9.2 -2.5 2.6 0 22.2 20 22.2 22.7 0 2.7 -3.4 5.5 -11.4 9.3 -14.3 6.7 -34.5 9.5 -49.1 6.6z"/>
  <path d="M123.8 151.4 c-9 -2.8 -16.8 -13.6 -16.8 -23.4 0 -12.9 12.1 -25 25 -25 12.9 0 25 12.1 25 25 0 10 -7.8 20.7 -17.2 23.5 -6.3 1.8 -9.8 1.8 -16 -0.1z"/>
 </g>
</svg>