<?xml version="1.0" encoding="utf-8"?>
<!DOCTYPE svg PUBLIC "-//W3C//DTD SVG 1.0//EN" "http://www.w3.org/TR/2001/REC-SVG-20010904/DTD/svg10.dtd">
<svg version="1.0" xmlns="http://www.w3.org/2000/svg" width="1000px" height="1000px" viewBox="0 0 1000 1000" preserveAspectRatio="xMidYMid meet">
 <g fill="#ffffff">
  <path d="M310.8 677.7 c-2 -1.2 -5.2 -4.2 -7.1 -6.7 -6.1 -7.9 -157.9 -219.3 -160.9 -223.9 -6.5 -10.2 -1.4 -23.8 10.1 -27.2 2.8 -0.8 28.3 0.7 117.1 7.1 62.4 4.4 114.9 8 116.6 7.8 2.7 -0.3 9.3 -7.3 52.7 -55.9 33.9 -37.9 50.8 -56.1 53.2 -57.2 5 -2.4 11.4 -2.2 16.3 0.6 3 1.6 18 18 52.7 57.5 46.4 52.7 48.7 55.2 52 55.2 1.9 0 54.4 -3.6 116.7 -8.1 120.2 -8.5 117.3 -8.4 123.2 -3.8 6.4 5 8.6 16.1 4.5 22.9 -7 11.5 -163.9 228.7 -166.8 230.9 l-3.4 2.6 -186.6 0.2 -186.6 0.3 -3.7 -2.3z m180.2 -61.3 c0 -25.9 -0.1 -27.6 -1.7 -26.9 -1 0.3 -33.7 12.6 -72.8 27.2 -39 14.6 -71.2 26.7 -71.4 26.9 -0.2 0.2 32.5 0.4 72.7 0.4 l73.2 0 0 -27.6z m163.9 27.2 c-0.4 -0.5 -144.8 -54.6 -145.5 -54.6 -0.2 0 -0.4 12.4 -0.4 27.5 l0 27.5 73.2 0 c40.2 0 72.9 -0.2 72.7 -0.4z m-253.7 -41.6 c38.9 -14.6 70.4 -26.8 70 -27.2 -0.9 -0.8 -260.3 -98 -260.7 -97.6 -0.1 0.2 24.8 35 55.3 77.5 l55.5 77.2 4.6 -1.8 c2.5 -0.9 36.4 -13.6 75.3 -28.1z m333.3 -47.7 c30.4 -42.2 55.1 -76.9 55 -77.1 -0.4 -0.4 -259.8 96.8 -260.7 97.6 -0.4 0.4 33.1 13.4 74.5 28.9 41.3 15.4 75.4 27.9 75.6 27.7 0.2 -0.2 25.2 -34.9 55.6 -77.1z m-243.5 -86.5 c-0.1 -90.3 -0.1 -93.2 -1.9 -91.1 -1 1.2 -28.6 32.4 -61.4 69.5 -32.8 37 -59.7 67.7 -59.9 68.1 -0.3 0.8 119.2 46.5 122 46.6 0.9 0.1 1.2 -19.2 1.2 -93.1z m80.3 70.6 c33.1 -12.5 60.6 -23 61 -23.4 0.6 -0.5 -109.9 -126.7 -120.9 -138 l-2.4 -2.5 0 93.3 c0 66.7 0.3 93.2 1.1 93.2 0.6 0 28.2 -10.2 61.2 -22.6z m-226.4 -53.7 c6.8 -7.6 12.1 -14 11.8 -14.3 -0.5 -0.5 -135 -10.5 -135.4 -10.1 0 0.1 24.3 9.5 54 20.8 49.7 18.9 54.3 20.5 55.8 19 0.8 -0.9 7.1 -7.8 13.8 -15.4z m399.3 -11.5 c18.5 -7 33.6 -12.8 33.5 -12.9 -0.2 -0.1 -120.9 8.5 -136.5 9.7 -0.1 0 6.1 7.1 13.9 15.9 l14.1 15.8 20.6 -7.9 c11.4 -4.3 35.8 -13.5 54.4 -20.6z"/>
 </g>
</svg>