<svg id="visual" viewBox="0 0 1920 1080" width="1920" height="1080" xmlns="http://www.w3.org/2000/svg" xmlns:xlink="http://www.w3.org/1999/xlink" version="1.1"><path d="M0 174L175 174L175 195L349 195L349 185L524 185L524 98L698 98L698 239L873 239L873 282L1047 282L1047 217L1222 217L1222 195L1396 195L1396 131L1571 131L1571 217L1745 217L1745 87L1920 87L1920 174L1920 0L1920 0L1745 0L1745 0L1571 0L1571 0L1396 0L1396 0L1222 0L1222 0L1047 0L1047 0L873 0L873 0L698 0L698 0L524 0L524 0L349 0L349 0L175 0L175 0L0 0Z" fill="#251a20"></path><path d="M0 368L175 368L175 455L349 455L349 465L524 465L524 422L698 422L698 379L873 379L873 530L1047 530L1047 498L1222 498L1222 379L1396 379L1396 433L1571 433L1571 509L1745 509L1745 249L1920 249L1920 422L1920 172L1920 85L1745 85L1745 215L1571 215L1571 129L1396 129L1396 193L1222 193L1222 215L1047 215L1047 280L873 280L873 237L698 237L698 96L524 96L524 183L349 183L349 193L175 193L175 172L0 172Z" fill="#2f242a"></path><path d="M0 498L175 498L175 573L349 573L349 552L524 552L524 487L698 487L698 487L873 487L873 606L1047 606L1047 649L1222 649L1222 465L1396 465L1396 552L1571 552L1571 584L1745 584L1745 401L1920 401L1920 563L1920 420L1920 247L1745 247L1745 507L1571 507L1571 431L1396 431L1396 377L1222 377L1222 496L1047 496L1047 528L873 528L873 377L698 377L698 420L524 420L524 463L349 463L349 453L175 453L175 366L0 366Z" fill="#3a2f35"></path><path d="M0 660L175 660L175 703L349 703L349 627L524 627L524 627L698 627L698 627L873 627L873 757L1047 757L1047 703L1222 703L1222 530L1396 530L1396 617L1571 617L1571 725L1745 725L1745 487L1920 487L1920 649L1920 561L1920 399L1745 399L1745 582L1571 582L1571 550L1396 550L1396 463L1222 463L1222 647L1047 647L1047 604L873 604L873 485L698 485L698 485L524 485L524 550L349 550L349 571L175 571L175 496L0 496Z" fill="#3a2f35"></path><path d="M0 995L175 995L175 930L349 930L349 887L524 887L524 995L698 995L698 919L873 919L873 1005L1047 1005L1047 887L1222 887L1222 919L1396 919L1396 876L1571 876L1571 930L1745 930L1745 897L1920 897L1920 887L1920 647L1920 485L1745 485L1745 723L1571 723L1571 615L1396 615L1396 528L1222 528L1222 701L1047 701L1047 755L873 755L873 625L698 625L698 625L524 625L524 625L349 625L349 701L175 701L175 658L0 658Z" fill="#2f242a"></path><path d="M0 1081L175 1081L175 1081L349 1081L349 1081L524 1081L524 1081L698 1081L698 1081L873 1081L873 1081L1047 1081L1047 1081L1222 1081L1222 1081L1396 1081L1396 1081L1571 1081L1571 1081L1745 1081L1745 1081L1920 1081L1920 1081L1920 885L1920 895L1745 895L1745 928L1571 928L1571 874L1396 874L1396 917L1222 917L1222 885L1047 885L1047 1003L873 1003L873 917L698 917L698 993L524 993L524 885L349 885L349 928L175 928L175 993L0 993Z" fill="#251a20"></path></svg>