<svg id="visual" viewBox="0 0 1920 1080" width="1920" height="1080" xmlns="http://www.w3.org/2000/svg" xmlns:xlink="http://www.w3.org/1999/xlink" version="1.1"><path d="M0 206L320 206L320 347L640 347L640 336L960 336L960 401L1280 401L1280 401L1600 401L1600 314L1920 314L1920 185L1920 0L1920 0L1600 0L1600 0L1280 0L1280 0L960 0L960 0L640 0L640 0L320 0L320 0L0 0Z" fill="#251a20"></path><path d="M0 357L320 357L320 573L640 573L640 433L960 433L960 595L1280 595L1280 519L1600 519L1600 444L1920 444L1920 379L1920 183L1920 312L1600 312L1600 399L1280 399L1280 399L960 399L960 334L640 334L640 345L320 345L320 204L0 204Z" fill="#2f242a"></path><path d="M0 735L320 735L320 789L640 789L640 627L960 627L960 735L1280 735L1280 746L1600 746L1600 692L1920 692L1920 779L1920 377L1920 442L1600 442L1600 517L1280 517L1280 593L960 593L960 431L640 431L640 571L320 571L320 355L0 355Z" fill="#4f454b"></path><path d="M0 789L320 789L320 941L640 941L640 779L960 779L960 811L1280 811L1280 843L1600 843L1600 822L1920 822L1920 843L1920 777L1920 690L1600 690L1600 744L1280 744L1280 733L960 733L960 625L640 625L640 787L320 787L320 733L0 733Z" fill="#4f454b"></path><path d="M0 919L320 919L320 1005L640 1005L640 887L960 887L960 897L1280 897L1280 930L1600 930L1600 941L1920 941L1920 984L1920 841L1920 820L1600 820L1600 841L1280 841L1280 809L960 809L960 777L640 777L640 939L320 939L320 787L0 787Z" fill="#2f242a"></path><path d="M0 1081L320 1081L320 1081L640 1081L640 1081L960 1081L960 1081L1280 1081L1280 1081L1600 1081L1600 1081L1920 1081L1920 1081L1920 982L1920 939L1600 939L1600 928L1280 928L1280 895L960 895L960 885L640 885L640 1003L320 1003L320 917L0 917Z" fill="#251a20"></path></svg>